<?xml version="1.0" encoding="UTF-8" standalone="no"?>
<svg
   xmlns:dc="http://purl.org/dc/elements/1.1/"
   xmlns:cc="http://creativecommons.org/ns#"
   xmlns:rdf="http://www.w3.org/1999/02/22-rdf-syntax-ns#"
   xmlns:svg="http://www.w3.org/2000/svg"
   xmlns="http://www.w3.org/2000/svg"
   viewBox="0 0 1461.3333 1040"
   height="1040"
   width="1461.3333"
   xml:space="preserve"
   id="svg2"
   version="1.1"><metadata
     id="metadata8"><rdf:RDF><cc:Work
         rdf:about=""><dc:format>image/svg+xml</dc:format><dc:type
           rdf:resource="http://purl.org/dc/dcmitype/StillImage" /></cc:Work></rdf:RDF></metadata><defs
     id="defs6" /><g
     transform="matrix(1.3333333,0,0,-1.3333333,0,1040)"
     id="g10"><g
       transform="scale(0.1)"
       id="g12"><path
         id="path14"
         style="fill:#231f20;fill-opacity:1;fill-rule:nonzero;stroke:none"
         d="m 5970.35,5522.29 c -49.05,0 -88.81,39.76 -88.81,88.81 0,49.05 39.76,88.81 88.81,88.81 49.04,0 88.8,-39.76 88.8,-88.81 0,-49.05 -39.76,-88.81 -88.8,-88.81 z m -400.42,-145.71 c -126.69,0 -229.39,102.7 -229.39,229.39 0,126.69 102.7,229.39 229.39,229.39 126.69,0 229.39,-102.7 229.39,-229.39 0,-126.69 -102.7,-229.39 -229.39,-229.39 z m -7.83,-254.71 c -49.05,0 -88.81,39.77 -88.81,88.81 0,49.05 39.76,88.81 88.81,88.81 49.04,0 88.8,-39.76 88.8,-88.81 0,-49.04 -39.76,-88.81 -88.8,-88.81 z m 7.83,986.29 c 49.05,0 88.81,-39.76 88.81,-88.81 0,-49.05 -39.76,-88.81 -88.81,-88.81 -49.05,0 -88.81,39.76 -88.81,88.81 0,49.05 39.76,88.81 88.81,88.81 z m -408.25,-578.04 c -49.05,0 -88.81,39.76 -88.81,88.81 0,49.05 39.76,88.81 88.81,88.81 49.05,0 88.81,-39.76 88.81,-88.81 0,-49.05 -39.76,-88.81 -88.81,-88.81 z m 1788.97,198.03 -32.11,-4.62 c -50.92,-7.32 -101.61,21.62 -117.37,70.59 -20.34,63.2 21.75,127.14 84.6,136.18 l 28.66,4.12 c 39.48,5.68 64.9,45.03 53.71,83.32 -5.52,18.86 -11.4,37.57 -17.65,56.11 -12.43,36.88 -54.09,54.89 -89.49,38.72 l -29.84,-13.63 c -46.79,-21.37 -103.59,-7.88 -132.5,34.67 -37.32,54.91 -14.95,128.12 42.81,154.5 l 26.17,11.95 c 36.33,16.59 49.62,61.59 27.99,95.17 -10.61,16.48 -21.54,32.72 -32.79,48.73 -22.35,31.81 -67.33,37.32 -96.72,11.86 l -26.83,-23.25 c -43.51,-37.7 -109.95,-32.95 -147.64,10.55 -55.19,0 -80.75,68.53 -39.04,104.67 l 71.19,61.69 c 30.16,26.13 30.27,72.99 0.13,99.14 -14.77,12.81 -29.8,25.33 -45.09,37.55 -30.4,24.3 -75.19,16.95 -96.23,-15.8 l -19.15,-29.79 c -31.12,-48.42 -96.21,-62.58 -144.63,-31.46 -48.43,31.12 -62.59,96.21 -31.47,144.63 l 15.62,24.3 c 21.57,33.56 8.49,78.55 -27.78,95.15 -17.79,8.14 -35.78,15.94 -53.95,23.37 -36.02,14.75 -76.92,-4.92 -87.89,-42.27 l -10.06,-34.26 c -16.22,-55.24 -74.68,-87.16 -129.91,-70.94 v 0 c -55.23,16.22 -87.16,74.68 -70.94,129.91 l 8.1,27.58 c 11.24,38.3 -14.01,77.8 -53.52,83.46 -19.31,2.77 -38.74,5.16 -58.29,7.16 -38.7,3.96 -72.38,-26.42 -72.38,-65.32 v -35.5 c 0,-57.57 -47.1,-104.67 -104.66,-104.67 v 0 c -57.57,0 -104.67,47.1 -104.67,104.67 v 28.7 c 0,39.88 -35.31,70.63 -74.79,65.03 -19.46,-2.76 -38.79,-5.91 -57.99,-9.43 -38.3,-7.03 -62.07,-45.72 -51.1,-83.08 l 9.18,-31.28 c 14.5,-49.36 -6.94,-103.65 -53.17,-126.22 -59.66,-29.12 -128.94,3.44 -146.83,64.36 l -8.16,27.78 c -11.25,38.32 -53.89,57.88 -90.2,41.27 -17.85,-8.16 -35.51,-16.68 -52.97,-25.54 -34.67,-17.59 -46.53,-61.34 -25.51,-94.05 l 19.31,-30.05 c 31.12,-48.42 16.97,-113.51 -31.46,-144.63 v 0 c -48.43,-31.12 -113.51,-16.96 -144.64,31.47 l -15.46,24.05 c -21.58,33.59 -67.99,40.35 -98.15,14.19 -14.78,-12.82 -29.3,-25.93 -43.55,-39.32 -28.34,-26.65 -27.42,-71.99 1.98,-97.46 l 26.74,-23.17 c 43.5,-37.69 48.25,-104.13 10.56,-147.64 -37.7,-43.5 -104.14,-48.26 -147.64,-10.56 l -21.71,18.81 c -30.14,26.12 -76.52,19.58 -98.12,-13.95 -10.59,-16.44 -20.87,-33.12 -30.81,-50.01 -19.74,-33.55 -6.1,-76.85 29.32,-93.03 l 32.36,-14.78 c 52.36,-23.91 75.64,-86.32 51.73,-138.68 v 0 c -23.92,-52.37 -86.32,-75.64 -138.69,-51.73 l -26.29,12.01 c -36.3,16.58 -78.99,-2.79 -90.23,-41.08 -5.51,-18.77 -10.65,-37.68 -15.41,-56.75 -9.43,-37.74 15.85,-75.39 54.35,-80.93 l 35.33,-5.07 c 56.97,-8.2 96.89,-61.52 88.7,-118.5 -8.19,-56.98 -61.52,-96.9 -118.5,-88.7 l -28.4,4.08 c -39.31,5.65 -74.91,-24.65 -74.93,-64.36 0,-0.26 0,-0.51 0,-0.76 0,-19.72 0.41,-39.34 1.21,-58.86 1.59,-38.71 36.56,-67.43 74.91,-61.92 l 35.08,5.05 c 56.98,8.19 110.3,-31.73 118.49,-88.71 8.19,-56.98 -31.72,-110.3 -88.7,-118.49 l -28.66,-4.12 c -39.48,-5.68 -64.9,-45.03 -53.71,-83.32 5.52,-18.86 11.4,-37.57 17.65,-56.11 12.43,-36.88 54.09,-54.89 89.49,-38.72 l 32.57,14.87 c 52.37,23.92 114.78,0.64 138.69,-51.72 23.91,-52.37 0.64,-114.78 -51.73,-138.69 l -26.16,-11.95 c -36.34,-16.59 -49.63,-61.59 -28,-95.17 10.61,-16.47 21.54,-32.72 32.79,-48.73 22.35,-31.81 67.34,-37.32 96.72,-11.86 l 26.84,23.25 c 43.5,37.7 109.94,32.95 147.64,-10.56 55.18,0 80.74,-68.52 39.03,-104.66 l -71.19,-61.69 c -30.16,-26.13 -30.27,-72.99 -0.13,-99.14 14.77,-12.81 29.81,-25.33 45.09,-37.55 30.4,-24.3 75.19,-16.95 96.24,15.79 l 17.52,27.27 c 27.81,43.27 82.88,62.63 130.2,42.47 61.08,-26.01 81.85,-99.7 47.52,-153.11 l -15.62,-24.31 c -21.56,-33.55 -8.49,-78.54 27.78,-95.14 17.8,-8.14 35.78,-15.94 53.95,-23.37 36.02,-14.75 76.92,4.92 87.89,42.26 l 9.34,31.83 c 14.31,48.72 60.8,82.4 111.31,77.17 66.83,-6.92 108.29,-72.31 90.26,-133.7 l -8.09,-27.58 c -11.25,-38.3 14,-77.81 53.52,-83.47 19.31,-2.76 38.74,-5.15 58.28,-7.15 38.7,-3.96 72.38,26.42 72.38,65.32 v 35.51 c 0,57.56 47.1,104.66 104.67,104.66 57.56,0 104.66,-47.1 104.66,-104.66 v -28.71 c 0,-39.88 35.31,-70.63 74.8,-65.03 19.45,2.76 38.78,5.91 57.98,9.43 38.3,7.03 62.08,45.72 51.1,83.08 l -9.18,31.28 c -14.49,49.36 6.94,103.66 53.17,126.22 59.66,29.12 128.94,-3.44 146.83,-64.36 l 8.16,-27.78 c 11.25,-38.32 53.89,-57.88 90.2,-41.27 17.86,8.17 35.51,16.68 52.97,25.54 34.67,17.59 46.53,61.34 25.51,94.05 l -17.69,27.52 c -27.81,43.27 -22.54,101.41 15.46,136.08 49.04,44.76 124.69,33.03 159.02,-20.38 l 15.46,-24.06 c 21.58,-33.59 67.99,-40.35 98.15,-14.19 14.78,12.82 29.3,25.93 43.55,39.32 28.35,26.64 27.42,71.99 -1.98,97.46 l -24.46,21.2 c -38.88,33.69 -50.2,90.95 -23.51,134.93 34.44,56.75 110.33,66.82 158.32,25.24 l 21.7,-18.81 c 30.14,-26.12 76.53,-19.58 98.12,13.95 10.6,16.44 20.87,33.12 30.81,50.01 19.75,33.55 6.1,76.85 -29.32,93.03 l -32.36,14.78 c -52.36,23.91 -75.64,86.32 -51.73,138.68 0,53.84 55.7,89.63 104.67,67.27 l 60.31,-27.55 c 36.31,-16.58 79,2.79 90.24,41.08 5.5,18.76 10.64,37.68 15.4,56.75 9.43,37.74 -15.85,75.39 -54.35,80.93 l -35.32,5.07 c -62.85,9.04 -104.94,72.99 -84.61,136.18 15.76,48.97 66.45,77.91 117.37,70.59 l 25.43,-3.65 c 39.31,-5.65 74.92,24.65 74.94,64.36 0,0.26 0,0.51 0,0.77 0,19.71 -0.42,39.33 -1.22,58.85 -1.59,38.71 -36.56,67.43 -74.9,61.92" /><path
         id="path16"
         style="fill:#231f20;fill-opacity:1;fill-rule:nonzero;stroke:none"
         d="m 2934.83,5648.96 c -8.67,134.68 -57.72,258.31 -135.23,358.98 l 240.67,240.66 c 137.68,-163.41 223.84,-371.61 233.51,-599.64 z m 82.26,-712.24 -239.85,239.84 c 80.08,93.24 134.54,209.03 152.51,336.62 h 340.68 c -20.38,-220.9 -112.68,-420.94 -253.34,-576.46 z m -672.48,-326.43 v 339.49 c 125.03,12.78 239.63,60.6 334.08,133.31 l 240.66,-240.66 c -157.44,-132.65 -356.46,-217.48 -574.74,-232.14 z m -67.89,721.98 c -151.16,0 -273.7,122.54 -273.7,273.7 0,151.17 122.54,273.71 273.7,273.71 151.16,0 273.7,-122.54 273.7,-273.71 0,-151.16 -122.54,-273.7 -273.7,-273.7 z m -67.89,-721.98 c -218.27,14.66 -417.29,99.49 -574.74,232.13 l 240.67,240.67 c 94.44,-72.71 209.04,-120.53 334.07,-133.31 z m -672.47,326.43 c -140.67,155.52 -232.97,355.56 -253.34,576.46 h 340.67 c 17.97,-127.59 72.44,-243.38 152.51,-336.62 z m -23.19,1311.89 240.67,-240.67 c -77.51,-100.67 -126.56,-224.29 -135.23,-358.98 h -338.95 c 9.67,228.03 95.83,436.23 233.51,599.65 z m 695.66,353.06 v -339.5 c -137.42,-14.05 -262.24,-70.41 -361.52,-155.67 l -239.84,239.84 c 161.34,145.94 370.61,239.82 601.36,255.33 z m 135.78,0 c 230.76,-15.51 440.02,-109.39 601.37,-255.33 L 2706.13,6106.5 c -99.28,85.26 -224.1,141.62 -361.52,155.67 z m 1313.44,-873.52 -32.11,-4.62 c -50.92,-7.32 -101.61,21.62 -117.37,70.59 -20.34,63.2 21.75,127.14 84.6,136.18 l 28.66,4.12 c 39.48,5.68 64.9,45.03 53.71,83.32 -5.52,18.86 -11.4,37.57 -17.65,56.11 -12.43,36.88 -54.09,54.89 -89.49,38.72 l -29.84,-13.63 c -46.8,-21.37 -103.59,-7.88 -132.5,34.67 -37.32,54.91 -14.95,128.12 42.81,154.5 l 26.17,11.95 c 36.33,16.59 49.62,61.59 27.99,95.17 -10.61,16.48 -21.54,32.72 -32.79,48.73 -22.35,31.81 -67.34,37.32 -96.72,11.86 l -26.83,-23.25 c -43.51,-37.7 -109.95,-32.95 -147.64,10.55 -55.19,0 -80.75,68.53 -39.04,104.67 l 71.19,61.69 c 30.16,26.13 30.27,72.99 0.13,99.14 -14.77,12.81 -29.81,25.33 -45.09,37.55 -30.4,24.3 -75.19,16.95 -96.23,-15.8 l -19.15,-29.79 c -31.12,-48.42 -96.21,-62.58 -144.63,-31.46 -48.43,31.12 -62.59,96.21 -31.47,144.63 l 15.62,24.3 c 21.57,33.56 8.49,78.55 -27.78,95.15 -17.79,8.14 -35.78,15.94 -53.95,23.37 -36.02,14.75 -76.92,-4.92 -87.89,-42.27 l -10.06,-34.26 c -16.22,-55.24 -74.68,-87.16 -129.91,-70.94 v 0 c -55.24,16.22 -87.16,74.68 -70.94,129.91 l 8.1,27.58 c 11.24,38.3 -14.01,77.8 -53.52,83.46 -19.31,2.77 -38.74,5.16 -58.29,7.16 -38.7,3.96 -72.38,-26.42 -72.38,-65.32 v -35.5 c 0,-57.57 -47.1,-104.67 -104.66,-104.67 v 0 c -57.57,0 -104.67,47.1 -104.67,104.67 v 28.7 c 0,39.88 -35.31,70.63 -74.8,65.03 -19.45,-2.76 -38.78,-5.91 -57.98,-9.43 -38.3,-7.03 -62.07,-45.72 -51.1,-83.08 l 9.18,-31.28 c 14.5,-49.36 -6.94,-103.65 -53.17,-126.22 -59.66,-29.12 -128.94,3.44 -146.83,64.36 l -8.16,27.78 c -11.25,38.32 -53.89,57.88 -90.2,41.27 -17.85,-8.16 -35.51,-16.68 -52.97,-25.54 -34.67,-17.59 -46.53,-61.34 -25.51,-94.05 l 19.31,-30.05 c 31.12,-48.42 16.96,-113.51 -31.46,-144.63 v 0 c -48.43,-31.12 -113.52,-16.96 -144.64,31.47 l -15.46,24.05 c -21.58,33.59 -67.99,40.35 -98.15,14.19 -14.78,-12.82 -29.3,-25.93 -43.55,-39.32 -28.34,-26.65 -27.42,-71.99 1.98,-97.46 l 26.74,-23.17 c 43.5,-37.69 48.25,-104.13 10.56,-147.64 -37.7,-43.5 -104.14,-48.26 -147.64,-10.56 l -21.71,18.81 c -30.14,26.12 -76.52,19.58 -98.12,-13.95 -10.6,-16.44 -20.87,-33.12 -30.81,-50.01 -19.74,-33.55 -6.1,-76.85 29.32,-93.03 l 32.36,-14.78 c 52.36,-23.91 75.64,-86.32 51.73,-138.68 v 0 c -23.92,-52.37 -86.32,-75.64 -138.686,-51.73 l -26.293,12.01 c -36.305,16.58 -78.996,-2.79 -90.234,-41.08 -5.508,-18.77 -10.645,-37.68 -15.41,-56.75 -9.426,-37.74 15.851,-75.39 54.359,-80.93 l 35.32,-5.07 c 56.974,-8.2 96.894,-61.52 88.704,-118.5 -8.19,-56.98 -61.516,-96.9 -118.497,-88.7 l -28.402,4.08 c -39.313,5.65 -74.914,-24.65 -74.938,-64.36 0,-0.26 0,-0.51 0,-0.76 0,-19.72 0.415,-39.34 1.215,-58.86 1.59,-38.71 36.563,-67.43 74.907,-61.92 l 35.082,5.05 c 56.98,8.19 110.303,-31.73 118.493,-88.71 8.19,-56.98 -31.72,-110.3 -88.7,-118.49 l -28.657,-4.12 c -39.484,-5.68 -64.902,-45.03 -53.711,-83.32 5.516,-18.86 11.403,-37.57 17.649,-56.11 12.429,-36.88 54.09,-54.89 89.492,-38.72 l 32.567,14.87 c 52.37,23.92 114.78,0.64 138.69,-51.72 23.91,-52.37 0.63,-114.78 -51.73,-138.69 l -26.16,-11.95 c -36.34,-16.59 -49.63,-61.59 -28,-95.17 10.61,-16.47 21.54,-32.72 32.79,-48.73 22.35,-31.81 67.34,-37.32 96.72,-11.86 l 26.84,23.25 c 43.5,37.7 109.94,32.95 147.64,-10.56 55.18,0 80.74,-68.52 39.03,-104.66 l -71.19,-61.69 c -30.16,-26.13 -30.27,-72.99 -0.13,-99.14 14.77,-12.81 29.81,-25.33 45.09,-37.55 30.4,-24.3 75.19,-16.95 96.24,15.79 l 17.52,27.27 c 27.81,43.27 82.88,62.63 130.2,42.47 61.08,-26.01 81.85,-99.7 47.52,-153.11 l -15.62,-24.31 c -21.56,-33.55 -8.49,-78.54 27.78,-95.14 17.8,-8.14 35.78,-15.94 53.95,-23.37 36.02,-14.75 76.92,4.92 87.89,42.26 l 9.34,31.83 c 14.31,48.72 60.8,82.4 111.31,77.17 66.83,-6.92 108.29,-72.31 90.26,-133.7 l -8.1,-27.58 c -11.24,-38.3 14.01,-77.81 53.53,-83.47 19.31,-2.76 38.74,-5.15 58.28,-7.15 38.7,-3.96 72.38,26.42 72.38,65.32 v 35.51 c 0,57.56 47.1,104.66 104.67,104.66 57.56,0 104.66,-47.1 104.66,-104.66 v -28.71 c 0,-39.88 35.31,-70.63 74.8,-65.03 19.45,2.76 38.78,5.91 57.98,9.43 38.3,7.03 62.07,45.72 51.1,83.08 l -9.18,31.28 c -14.5,49.36 6.94,103.66 53.17,126.22 59.65,29.12 128.94,-3.44 146.83,-64.36 l 8.16,-27.78 c 11.25,-38.32 53.89,-57.88 90.2,-41.27 17.85,8.17 35.51,16.68 52.97,25.54 34.67,17.59 46.53,61.34 25.51,94.05 l -17.69,27.52 c -27.81,43.27 -22.54,101.41 15.46,136.08 49.04,44.76 124.69,33.03 159.02,-20.38 l 15.46,-24.06 c 21.58,-33.59 67.99,-40.35 98.15,-14.19 14.78,12.82 29.3,25.93 43.55,39.32 28.34,26.64 27.42,71.99 -1.98,97.46 l -24.46,21.2 c -38.88,33.69 -50.2,90.95 -23.52,134.93 34.45,56.75 110.34,66.82 158.33,25.24 l 21.7,-18.81 c 30.14,-26.12 76.53,-19.58 98.12,13.95 10.6,16.44 20.87,33.12 30.81,50.01 19.74,33.55 6.1,76.85 -29.32,93.03 l -32.36,14.78 c -52.36,23.91 -75.64,86.32 -51.73,138.68 0,53.84 55.7,89.63 104.67,67.27 l 60.31,-27.55 c 36.3,-16.58 79,2.79 90.24,41.08 5.5,18.76 10.64,37.68 15.4,56.75 9.43,37.74 -15.85,75.39 -54.35,80.93 l -35.32,5.07 c -62.85,9.04 -104.94,72.99 -84.61,136.18 15.76,48.97 66.45,77.91 117.37,70.59 l 25.43,-3.65 c 39.31,-5.65 74.92,24.65 74.94,64.36 0,0.26 0,0.51 0,0.77 0,19.71 -0.42,39.33 -1.22,58.85 -1.59,38.71 -36.56,67.43 -74.9,61.92" /><path
         id="path18"
         style="fill:#231f20;fill-opacity:1;fill-rule:nonzero;stroke:none"
         d="m 6512.7,1866.22 -63.26,25.11 c 23.4,68.38 39.16,140.29 46.04,214.81 h -83.52 c 2.9,28.44 4.38,57.29 4.38,86.48 0,13.44 -0.35,26.79 -0.97,40.07 h 83.23 c -4.27,100.72 -24.73,197.21 -58.55,287.16 l 62.54,26.99 c 41.81,-110.09 64.77,-229.46 64.77,-354.21 0,-114.32 -19.28,-224.13 -54.66,-326.41 z m -507.13,-571.44 -26.99,62.52 c 68.35,33.55 132.04,75.11 189.69,123.68 l -59.29,59.29 c 32.54,26.96 63.01,56.33 91.19,87.78 l 59.19,-59.18 c 63.99,70.75 117.15,151.44 157.11,239.41 l 63.28,-25.12 c -95.97,-213.05 -264.54,-386.33 -474.18,-488.38 z m -436.25,-100.19 c -114.32,0 -224.12,19.27 -326.4,54.66 l 25.13,63.32 c 75.45,-25.83 155.2,-42.39 238,-47.95 v 83.34 c 20.89,-1.55 41.99,-2.36 63.27,-2.36 21.28,0 42.38,0.81 63.28,2.36 v -83.34 c 92.35,6.21 180.95,26.02 263.96,57.23 l 26.98,-62.49 c -110.09,-41.81 -229.46,-64.77 -354.22,-64.77 z m -897.84,561.77 62.41,26.95 c 38.43,-78.3 87.49,-150.43 145.4,-214.45 l 59.18,59.19 c 28.19,-31.46 58.65,-60.82 91.19,-87.79 l -59.28,-59.28 c 64.6,-54.43 136.72,-100.19 214.57,-135.56 l -25.09,-63.22 c -213.05,95.97 -386.33,264.53 -488.38,474.16 z m -45.54,762.67 63.24,-25.11 c -28.23,-82.47 -45.27,-170.13 -49.14,-261.23 h 83.23 c -0.62,-13.28 -0.97,-26.63 -0.97,-40.07 0,-29.19 1.48,-58.04 4.38,-86.48 h -83.51 c 7.74,-84.01 26.82,-164.71 55.41,-240.75 l -62.53,-26.99 c -41.81,110.09 -64.76,229.47 -64.76,354.23 0,114.31 19.27,224.11 54.65,326.4 z m 507.13,571.44 26.97,-62.48 c -78.3,-38.43 -150.47,-87.43 -214.48,-145.33 l 59.19,-59.19 c -31.46,-28.18 -60.82,-58.65 -87.79,-91.18 l -59.28,59.28 c -54.43,-64.6 -100.1,-136.77 -135.48,-214.62 l -63.31,25.14 c 95.97,213.05 264.54,386.33 474.18,488.38 z m 436.25,100.19 c 114.32,0 224.12,-19.27 326.4,-54.66 l -25.1,-63.24 c -75.45,25.82 -155.23,42.31 -238.02,47.87 v -83.34 c -20.9,1.55 -42,2.36 -63.28,2.36 -21.28,0 -42.38,-0.81 -63.27,-2.36 v 83.34 c -92.36,-6.21 -180.98,-25.97 -264,-57.17 l -26.95,62.43 c 110.09,41.81 229.46,64.77 354.22,64.77 z m -544.98,-1281.97 68.9,29.75 c 52.87,-98.82 135.6,-179.19 236.13,-229.19 l -27.71,-69.83 c -37.96,18.42 -73.87,40.37 -106.98,65.86 l -118.06,-118.05 c -32.76,26.71 -63.26,56.06 -91.31,87.66 l 117.51,117.51 c -30.44,35.45 -56.67,74.53 -78.48,116.29 z m 544.98,-6.78 c -160.56,0 -290.72,130.16 -290.72,290.72 0,160.55 130.16,290.71 290.72,290.71 160.56,0 290.72,-130.16 290.72,-290.71 0,-160.56 -130.16,-290.72 -290.72,-290.72 z m 605.4,783.41 -118.06,-118.06 c 21.82,-28.34 41,-58.75 57.66,-90.7 l -68.91,-29.75 C 5992.54,2545.63 5909.8,2626 5809.27,2676 l 27.75,69.92 c 47.95,-23.27 92.51,-52.44 132.52,-86.8 l 117.52,117.51 c 31.59,-28.05 60.94,-58.55 87.66,-91.31 z m -420.76,93.55 -27.72,-69.84 c -49.67,15.08 -102.33,23.25 -156.92,23.25 -60.21,0 -118.05,-10.01 -172.13,-28.2 l -29.86,69.16 c 44.18,15.41 90.58,26.05 138.72,30.97 v 166.61 c 20.89,1.68 41.95,2.78 63.27,2.78 21.32,0 42.38,-1.1 63.28,-2.78 v -166.61 c 41.89,-4.28 82.41,-13.04 121.36,-25.34 z m -790.03,-93.55 c 26.71,32.77 56.06,63.27 87.66,91.31 l 117.51,-117.51 c 35.44,30.44 74.55,56.64 116.31,78.46 l 29.73,-68.87 c -98.82,-52.87 -179.19,-135.6 -229.2,-236.14 l -69.8,27.71 c 18.39,37.96 40.35,73.87 65.84,106.99 z m -175.59,-492.7 c 0,13.44 0.35,26.8 1.02,40.07 h 166.59 c 3.22,50.09 12.54,98.5 27.05,144.6 l 69.91,-27.75 c -15.07,-49.66 -23.25,-102.33 -23.25,-156.91 0,-60.22 10.01,-118.06 28.21,-172.13 l -69.03,-29.8 c -12.89,37.02 -22.54,75.56 -28.16,115.44 h -167.44 c -3.14,28.41 -4.9,57.24 -4.9,86.48 z m 596.34,-586.25 27.72,69.85 c 49.67,-15.07 102.33,-23.25 156.92,-23.25 60.21,0 118.05,10.01 172.13,28.2 l 29.88,-69.22 c -44.17,-15.4 -90.6,-25.99 -138.73,-30.91 v -166.61 c -20.9,-1.68 -41.96,-2.78 -63.28,-2.78 -21.32,0 -42.38,1.1 -63.27,2.78 v 166.61 c -41.9,4.28 -82.42,13.03 -121.37,25.33 z m 768.65,68.52 c -28.04,-31.6 -58.55,-60.95 -91.31,-87.66 l -118.06,118.06 c -28.34,-21.82 -58.75,-41.04 -90.68,-57.72 l -29.78,68.97 c 98.82,52.87 179.19,135.6 229.2,236.14 l 69.94,-27.77 c -23.25,-47.95 -52.45,-92.49 -86.82,-132.51 z m 196.97,517.73 c 0,-29.24 -1.76,-58.07 -4.9,-86.48 h -167.44 c -4.75,-33.71 -12.39,-66.46 -22.37,-98.17 l -69.86,27.73 c 15.07,49.67 23.25,102.34 23.25,156.93 0,60.21 -10.01,118.04 -28.2,172.12 l 69.07,29.82 c 17.83,-51.23 29.21,-105.48 32.84,-161.88 h 166.59 c 0.67,-13.27 1.02,-26.63 1.02,-40.07 z m 116.87,436.26 -62.43,-26.95 c -33.55,68.35 -75.21,131.99 -123.77,189.64 l -59.29,-59.29 c -26.96,32.54 -56.33,63.01 -87.79,91.19 l 59.19,59.19 c -70.75,63.99 -151.48,117.07 -239.44,157.04 l 25.14,63.35 c 213.06,-95.97 386.34,-264.53 488.39,-474.17 z m 558.38,-377.4 c -1.59,38.71 -36.56,67.43 -74.9,61.92 l -32.11,-4.62 c -50.92,-7.32 -101.61,21.62 -117.37,70.59 -20.33,63.2 21.75,127.14 84.6,136.18 l 28.66,4.12 c 39.48,5.68 64.9,45.03 53.71,83.32 -5.52,18.86 -11.4,37.57 -17.65,56.11 -12.43,36.88 -54.09,54.89 -89.49,38.72 l -29.84,-13.63 c -46.79,-21.37 -103.59,-7.88 -132.5,34.67 -37.32,54.91 -14.95,128.12 42.81,154.5 l 26.17,11.95 c 36.33,16.59 49.62,61.59 27.99,95.17 -10.61,16.47 -21.54,32.72 -32.79,48.73 -22.35,31.81 -67.33,37.32 -96.72,11.86 l -26.83,-23.25 c -43.51,-37.7 -109.95,-32.95 -147.64,10.56 -55.19,0 -80.75,68.52 -39.04,104.66 l 71.19,61.69 c 30.16,26.13 30.27,72.99 0.13,99.14 -14.77,12.81 -29.8,25.33 -45.09,37.55 -30.4,24.3 -75.19,16.95 -96.23,-15.79 l -19.15,-29.8 c -31.12,-48.42 -96.21,-62.58 -144.63,-31.46 -48.43,31.12 -62.59,96.21 -31.47,144.64 l 15.62,24.3 c 21.57,33.55 8.49,78.54 -27.78,95.14 -17.79,8.14 -35.78,15.94 -53.95,23.37 -36.02,14.75 -76.92,-4.92 -87.89,-42.26 l -10.06,-34.27 c -16.22,-55.24 -74.68,-87.16 -129.91,-70.94 v 0 c -55.23,16.22 -87.16,74.68 -70.94,129.91 l 8.1,27.58 c 11.24,38.3 -14.01,77.81 -53.52,83.47 -19.31,2.76 -38.74,5.15 -58.29,7.15 -38.7,3.96 -72.38,-26.42 -72.38,-65.32 v -35.5 c 0,-57.57 -47.1,-104.67 -104.66,-104.67 v 0 c -57.57,0 -104.67,47.1 -104.67,104.67 v 28.7 c 0,39.88 -35.31,70.63 -74.79,65.03 -19.46,-2.76 -38.79,-5.91 -57.99,-9.43 -38.3,-7.03 -62.07,-45.72 -51.1,-83.08 l 9.18,-31.28 c 14.5,-49.36 -6.94,-103.66 -53.17,-126.22 -59.66,-29.13 -128.94,3.44 -146.83,64.36 l -8.16,27.79 c -11.25,38.31 -53.89,57.87 -90.2,41.26 -17.85,-8.17 -35.51,-16.68 -52.97,-25.54 -34.67,-17.59 -46.53,-61.34 -25.51,-94.05 l 19.31,-30.04 c 31.12,-48.43 16.97,-113.52 -31.46,-144.64 v 0 c -48.43,-31.12 -113.51,-16.96 -144.64,31.47 l -15.46,24.05 c -21.58,33.59 -67.99,40.35 -98.15,14.19 -14.78,-12.82 -29.3,-25.93 -43.55,-39.32 -28.34,-26.64 -27.42,-71.99 1.98,-97.46 l 26.74,-23.17 c 43.5,-37.69 48.25,-104.13 10.56,-147.64 -37.7,-43.5 -104.14,-48.26 -147.64,-10.56 l -21.71,18.81 c -30.14,26.12 -76.52,19.58 -98.12,-13.95 -10.59,-16.44 -20.87,-33.12 -30.81,-50.01 -19.74,-33.55 -6.1,-76.86 29.32,-93.03 l 32.36,-14.78 c 52.36,-23.91 75.64,-86.32 51.73,-138.68 v 0 c -23.92,-52.37 -86.32,-75.64 -138.69,-51.73 l -26.29,12.01 c -36.3,16.58 -78.99,-2.79 -90.23,-41.08 -5.51,-18.76 -10.65,-37.68 -15.41,-56.75 -9.43,-37.74 15.85,-75.39 54.35,-80.93 l 35.33,-5.07 c 56.97,-8.2 96.89,-61.52 88.7,-118.5 -8.19,-56.98 -61.52,-96.9 -118.5,-88.7 l -28.4,4.08 c -39.31,5.65 -74.91,-24.65 -74.93,-64.36 0,-0.26 0,-0.51 0,-0.76 0,-19.72 0.41,-39.34 1.21,-58.86 1.59,-38.71 36.56,-67.43 74.91,-61.92 l 35.08,5.05 c 56.98,8.19 110.3,-31.73 118.49,-88.71 8.19,-56.98 -31.72,-110.3 -88.7,-118.49 l -28.66,-4.12 c -39.48,-5.68 -64.9,-45.03 -53.71,-83.32 5.52,-18.86 11.4,-37.57 17.65,-56.11 12.43,-36.88 54.09,-54.89 89.49,-38.72 l 32.57,14.87 c 52.37,23.92 114.78,0.64 138.69,-51.72 23.91,-52.37 0.64,-114.77 -51.73,-138.69 l -26.16,-11.95 c -36.34,-16.59 -49.63,-61.59 -28,-95.17 10.61,-16.47 21.54,-32.72 32.79,-48.73 22.35,-31.81 67.34,-37.32 96.72,-11.86 l 26.84,23.26 c 43.5,37.69 109.94,32.94 147.64,-10.57 55.18,0 80.74,-68.52 39.03,-104.66 l -71.19,-61.69 c -30.16,-26.13 -30.27,-72.99 -0.13,-99.14 14.77,-12.81 29.81,-25.33 45.09,-37.55 30.4,-24.3 75.19,-16.95 96.24,15.8 l 17.52,27.26 c 27.81,43.28 82.88,62.63 130.2,42.47 61.08,-26.01 81.85,-99.7 47.52,-153.11 l -15.62,-24.301 c -21.56,-33.558 -8.49,-78.547 27.78,-95.148 17.8,-8.141 35.78,-15.93 53.95,-23.371 36.02,-14.75 76.92,4.922 87.89,42.261 l 9.34,31.829 c 14.31,48.722 60.8,82.402 111.31,77.171 66.83,-6.921 108.29,-72.3 90.26,-133.699 l -8.09,-27.582 c -11.25,-38.301 14,-77.808 53.52,-83.469 19.31,-2.761 38.74,-5.152 58.28,-7.152 38.7,-3.957 72.38,26.422 72.38,65.32 v 35.512 c 0,57.559 47.1,104.66 104.67,104.66 57.56,0 104.66,-47.101 104.66,-104.66 V 814.91 c 0,-39.879 35.31,-70.629 74.8,-65.031 19.45,2.773 38.78,5.91 57.98,9.434 38.3,7.027 62.07,45.718 51.1,83.078 l -9.18,31.281 c -14.49,49.359 6.94,103.656 53.17,126.219 59.66,29.129 128.94,-3.442 146.83,-64.36 l 8.16,-27.781 c 11.25,-38.32 53.89,-57.879 90.2,-41.27 17.86,8.172 35.51,16.68 52.97,25.54 34.67,17.589 46.53,61.339 25.51,94.05 l -17.69,27.52 c -27.81,43.28 -22.54,101.41 15.46,136.08 49.04,44.76 124.69,33.03 159.02,-20.38 l 15.46,-24.06 c 21.58,-33.58 67.99,-40.35 98.15,-14.19 14.78,12.82 29.3,25.93 43.55,39.32 28.35,26.64 27.42,71.99 -1.98,97.46 l -24.46,21.2 c -38.88,33.69 -50.2,90.95 -23.51,134.93 34.44,56.75 110.33,66.82 158.32,25.24 l 21.7,-18.81 c 30.15,-26.12 76.53,-19.58 98.12,13.95 10.6,16.45 20.87,33.12 30.81,50.01 19.75,33.55 6.1,76.86 -29.32,93.03 l -32.36,14.78 c -52.36,23.91 -75.64,86.32 -51.73,138.68 0,53.84 55.7,89.63 104.67,67.27 l 60.31,-27.55 c 36.31,-16.58 79,2.79 90.24,41.08 5.5,18.77 10.64,37.68 15.4,56.75 9.43,37.74 -15.85,75.39 -54.35,80.93 l -35.32,5.08 c -62.85,9.03 -104.94,72.98 -84.61,136.17 15.76,48.97 66.45,77.92 117.37,70.6 l 25.43,-3.66 c 39.31,-5.65 74.92,24.65 74.94,64.36 0,0.26 0,0.51 0,0.77 0,19.71 -0.42,39.33 -1.22,58.85" /><path
         id="path20"
         style="fill:#231f20;fill-opacity:1;fill-rule:nonzero;stroke:none"
         d="M 9595.06,5650 H 9463.5 c -59.11,0 -118.01,47.19 -130.9,104.87 l -61.99,168.5 c -29.05,51.48 -18.62,127.79 23.18,169.58 l 94.05,94.05 c 41.79,41.79 100.93,34.56 131.43,-16.06 l 160.2,-415.98 c 12.68,-57.73 -25.3,-104.96 -84.41,-104.96 z m 76.25,-242.61 -172.29,-395.6 c -32.4,-49.43 -93.09,-55.69 -134.88,-13.89 l -93.21,93.2 c -41.79,41.79 -49.82,116.65 -17.83,166.35 l 67.09,150.75 c 16.86,56.65 79.01,103 138.11,103 h 133.34 c 59.1,0 94.96,-46.72 79.67,-103.81 z m -422.83,-637.84 -391.27,-156.42 c -57.49,-13.71 -104.53,23.43 -104.53,82.54 v 132.13 c 0,59.1 46.88,119.31 104.18,133.8 l 144.24,56.26 c 51.2,29.52 127.29,19.48 169.08,-22.31 l 94.05,-94.05 c 41.79,-41.79 34.7,-101.17 -15.75,-131.95 z m -535.5,507.16 c 69.35,6.18 132.51,33.73 182.89,76.07 l 140.84,-140.83 c -86.85,-77.95 -199.57,-127.6 -323.73,-134.47 z m -383.13,-64.77 140.84,140.84 c 50.37,-42.34 113.54,-69.89 182.89,-76.07 v -199.23 c -124.16,6.87 -236.89,56.52 -323.73,134.46 z m 284.03,-516.27 c 0,-59.11 -47.04,-96.25 -104.54,-82.54 l -391.26,156.41 c -50.45,30.79 -57.54,90.17 -15.75,131.96 l 94.05,94.05 c 41.79,41.79 117.88,51.83 169.08,22.31 l 144.23,-56.26 c 57.3,-14.49 104.19,-74.7 104.19,-133.8 z m -611.46,302.22 c -41.79,-41.79 -102.49,-35.54 -134.88,13.9 l -172.3,395.6 c -15.28,57.09 20.57,103.81 79.68,103.81 h 133.33 c 59.11,0 121.26,-46.35 138.12,-103 l 67.09,-150.75 c 31.98,-49.7 23.96,-124.56 -17.83,-166.35 z m -315.33,757.07 160.2,415.98 c 30.49,50.63 89.64,57.86 131.43,16.06 l 94.05,-94.04 c 41.79,-41.79 52.23,-118.11 23.18,-169.58 l -62,-168.51 C 8021.07,5697.19 7962.16,5650 7903.06,5650 h -131.57 c -59.1,0 -97.08,47.23 -84.4,104.96 z m 402.26,666.32 420.24,176.7 c 57.36,14.26 104.29,-22.43 104.29,-81.53 v -132.13 c 0,-59.11 -46.71,-120.01 -103.79,-135.33 l -174.94,-73.86 c -49.96,-31.58 -125.04,-23.22 -166.83,18.58 l -93.2,93.2 c -41.8,41.8 -35.39,102.26 14.23,134.37 z m 564.23,-486.05 c -68.65,-6.11 -131.27,-33.15 -181.39,-74.76 l -140.84,140.84 c 86.64,77.18 198.77,126.33 322.23,133.16 z m -364.33,24.17 140.84,-140.84 c -42.06,-50.03 -69.54,-112.69 -75.97,-181.48 h -199.24 c 7.17,123.6 56.71,235.81 134.37,322.32 z m -134.58,-381.73 h 199.24 c 5.87,-69.19 32.98,-132.32 74.88,-182.78 l -140.84,-140.84 c -77.48,86.97 -126.74,199.61 -133.28,323.62 z m 880.54,423.63 -140.84,-140.84 c -50.12,41.62 -112.74,68.66 -181.39,74.77 v 199.24 c 123.46,-6.83 235.58,-55.98 322.23,-133.17 z m -22.78,-364.22 c -6.42,68.79 -33.9,131.45 -75.96,181.48 l 140.84,140.84 c 77.65,-86.51 127.2,-198.72 134.36,-322.32 z m 66.18,-383.03 -140.84,140.84 c 41.9,50.46 69,113.59 74.87,182.78 h 199.24 c -6.53,-124.01 -55.79,-236.65 -133.27,-323.62 z m -325.93,1262.4 c 0,59.1 46.93,95.79 104.29,81.53 l 420.24,-176.7 c 49.62,-32.11 56.03,-92.58 14.23,-134.37 l -93.2,-93.21 c -41.8,-41.79 -116.87,-50.15 -166.83,-18.58 l -174.95,73.87 c -57.08,15.32 -103.78,76.22 -103.78,135.33 z m 1386.82,-850.22 c -1.6,38.7 -36.6,67.43 -74.9,61.92 l -32.1,-4.62 c -50.93,-7.32 -101.62,21.62 -117.37,70.59 -20.34,63.2 21.75,127.14 84.6,136.18 l 28.67,4.12 c 39.5,5.68 64.9,45.03 53.7,83.32 -5.5,18.86 -11.4,37.57 -17.7,56.11 -12.4,36.88 -54,54.89 -89.44,38.72 l -29.85,-13.63 c -46.79,-21.37 -103.58,-7.88 -132.5,34.67 -37.31,54.91 -14.94,128.12 42.82,154.5 l 26.16,11.95 c 36.34,16.59 49.63,61.59 28,95.17 -10.61,16.47 -21.54,32.72 -32.79,48.73 -22.35,31.81 -67.34,37.32 -96.72,11.86 l -26.84,-23.25 c -43.5,-37.7 -109.94,-32.95 -147.64,10.55 -55.18,0 -80.74,68.53 -39.04,104.67 l 71.2,61.69 c 30.15,26.13 30.27,72.99 0.13,99.14 -14.78,12.81 -29.81,25.33 -45.09,37.55 -30.4,24.3 -75.19,16.95 -96.24,-15.8 l -19.14,-29.79 c -31.12,-48.42 -96.21,-62.58 -144.64,-31.46 -48.42,31.12 -62.58,96.21 -31.46,144.63 l 15.62,24.3 c 21.56,33.56 8.49,78.55 -27.78,95.15 -17.8,8.14 -35.78,15.94 -53.95,23.37 -36.02,14.75 -76.92,-4.92 -87.89,-42.26 l -10.06,-34.27 c -16.22,-55.24 -74.68,-87.16 -129.91,-70.94 v 0 c -55.24,16.22 -87.16,74.68 -70.94,129.91 l 8.09,27.58 c 11.25,38.3 -14,77.8 -53.52,83.46 -19.31,2.77 -38.74,5.16 -58.28,7.16 -38.7,3.96 -72.38,-26.42 -72.38,-65.32 v -35.5 c 0,-57.57 -47.1,-104.67 -104.67,-104.67 v 0 c -57.56,0 -104.66,47.1 -104.66,104.67 v 28.7 c 0,39.88 -35.32,70.63 -74.8,65.03 -19.45,-2.76 -38.78,-5.91 -57.98,-9.43 -38.3,-7.03 -62.08,-45.72 -51.11,-83.08 l 9.19,-31.28 c 14.49,-49.36 -6.94,-103.65 -53.17,-126.22 -59.66,-29.12 -128.94,3.44 -146.83,64.36 l -8.16,27.79 c -11.25,38.31 -53.89,57.87 -90.21,41.26 -17.85,-8.16 -35.51,-16.68 -52.96,-25.54 -34.68,-17.59 -46.53,-61.34 -25.51,-94.05 l 19.31,-30.05 c 31.12,-48.42 16.96,-113.51 -31.47,-144.63 v 0 c -48.42,-31.12 -113.51,-16.96 -144.63,31.47 l -15.46,24.05 c -21.58,33.58 -67.99,40.35 -98.16,14.19 -14.77,-12.82 -29.29,-25.93 -43.54,-39.32 -28.35,-26.64 -27.42,-71.99 1.98,-97.46 l 26.73,-23.17 c 43.51,-37.69 48.26,-104.13 10.56,-147.64 -37.69,-43.5 -104.13,-48.26 -147.64,-10.56 l -21.7,18.81 c -30.15,26.12 -76.53,19.58 -98.13,-13.95 -10.59,-16.44 -20.86,-33.12 -30.8,-50.01 -19.75,-33.55 -6.1,-76.85 29.32,-93.03 l 32.36,-14.78 c 52.36,-23.91 75.64,-86.32 51.72,-138.68 v 0 c -23.91,-52.37 -86.32,-75.64 -138.68,-51.73 l -26.29,12.01 c -36.31,16.58 -79,-2.79 -90.24,-41.08 -5.5,-18.77 -10.64,-37.68 -15.41,-56.75 -9.42,-37.74 15.86,-75.39 54.36,-80.93 l 35.32,-5.07 c 56.98,-8.2 96.9,-61.52 88.71,-118.5 -8.2,-56.98 -61.52,-96.9 -118.5,-88.7 l -28.4,4.08 c -39.31,5.65 -74.92,-24.65 -74.94,-64.36 0,-0.26 0,-0.51 0,-0.76 0,-19.72 0.42,-39.34 1.22,-58.86 1.59,-38.71 36.56,-67.43 74.9,-61.92 l 35.09,5.05 c 56.97,8.19 110.3,-31.73 118.49,-88.71 8.19,-56.98 -31.73,-110.3 -88.7,-118.49 l -28.66,-4.12 c -39.49,-5.68 -64.9,-45.03 -53.71,-83.32 5.52,-18.86 11.4,-37.57 17.65,-56.11 12.43,-36.88 54.09,-54.89 89.49,-38.72 l 32.57,14.87 c 52.36,23.92 114.77,0.64 138.69,-51.72 23.91,-52.37 0.63,-114.78 -51.73,-138.69 l -26.17,-11.95 c -36.33,-16.59 -49.62,-61.59 -27.99,-95.17 10.61,-16.48 21.54,-32.72 32.79,-48.73 22.35,-31.81 67.33,-37.32 96.72,-11.86 l 26.83,23.25 c 43.51,37.7 109.95,32.95 147.64,-10.56 55.19,0 80.75,-68.52 39.04,-104.66 l -71.19,-61.69 c -30.16,-26.13 -30.27,-72.99 -0.13,-99.14 14.77,-12.81 29.8,-25.33 45.09,-37.55 30.4,-24.3 75.19,-16.95 96.23,15.79 l 17.52,27.27 c 27.82,43.28 82.88,62.63 130.21,42.47 61.08,-26.01 81.85,-99.7 47.52,-153.12 l -15.62,-24.3 c -21.57,-33.55 -8.49,-78.54 27.78,-95.14 17.79,-8.14 35.78,-15.93 53.95,-23.37 36.02,-14.75 76.92,4.92 87.89,42.26 l 9.34,31.83 c 14.31,48.71 60.8,82.4 111.31,77.17 66.83,-6.92 108.29,-72.3 90.26,-133.7 l -8.1,-27.58 c -11.25,-38.3 14.01,-77.81 53.52,-83.47 19.31,-2.76 38.74,-5.15 58.29,-7.15 38.7,-3.96 72.38,26.42 72.38,65.32 v 35.5 c 0,57.57 47.1,104.67 104.66,104.67 57.57,0 104.67,-47.1 104.67,-104.67 v -28.7 c 0,-39.88 35.31,-70.63 74.79,-65.03 19.46,2.76 38.79,5.91 57.98,9.43 38.3,7.03 62.08,45.72 51.11,83.08 l -9.19,31.28 c -14.49,49.36 6.95,103.66 53.17,126.22 59.66,29.13 128.95,-3.44 146.84,-64.36 l 8.16,-27.79 c 11.25,-38.31 53.89,-57.87 90.2,-41.26 17.85,8.17 35.51,16.68 52.97,25.54 34.67,17.59 46.53,61.34 25.51,94.05 l -17.69,27.52 c -27.81,43.27 -22.54,101.41 15.46,136.08 49.04,44.76 124.69,33.03 159.02,-20.38 l 15.45,-24.06 c 21.59,-33.59 68,-40.35 98.16,-14.19 14.78,12.82 29.3,25.93 43.55,39.32 28.34,26.64 27.41,71.99 -1.98,97.46 l -24.47,21.2 c -38.88,33.69 -50.2,90.95 -23.51,134.93 34.45,56.75 110.34,66.82 158.32,25.24 l 21.71,-18.81 c 30.14,-26.12 76.52,-19.58 98.12,13.95 10.59,16.44 20.86,33.12 30.81,50.01 19.74,33.55 6.09,76.86 -29.32,93.03 l -32.36,14.78 c -52.37,23.91 -75.64,86.32 -51.73,138.68 0,53.84 55.69,89.63 104.66,67.27 l 60.32,-27.55 c 36.27,-16.58 78.97,2.79 90.27,41.08 5.5,18.76 10.6,37.68 15.4,56.75 9.4,37.74 -15.9,75.39 -54.4,80.93 l -35.3,5.08 c -62.86,9.03 -104.95,72.98 -84.61,136.17 15.76,48.97 66.45,77.92 117.41,70.6 l 25.4,-3.66 c 39.3,-5.65 74.9,24.65 74.9,64.36 0,0.26 0,0.51 0,0.77 0,19.71 -0.4,39.33 -1.2,58.85" /><path
         id="path22"
         style="fill:#231f20;fill-opacity:1;fill-rule:nonzero;stroke:none"
         d="m 2915.24,1554.73 c -36.26,-36.25 -95.04,-36.25 -131.29,0 -36.26,36.26 -36.26,95.04 0,131.3 36.25,36.26 95.03,36.26 131.29,0 36.26,-36.26 36.26,-95.04 0,-131.3 z m -638.52,260.59 c -38.71,0 -76.04,5.85 -111.2,16.68 l 112.35,283.02 120.66,-279.49 c -38.23,-13.04 -79.17,-20.21 -121.81,-20.21 z m 13.09,-526.2 c -51.27,0 -92.84,41.56 -92.84,92.84 0,51.27 41.57,92.84 92.84,92.84 51.27,0 92.84,-41.57 92.84,-92.84 0,-51.28 -41.57,-92.84 -92.84,-92.84 z m -498.77,254.42 c -36.26,-36.25 -95.04,-36.25 -131.3,0 -36.25,36.26 -36.25,95.04 0,131.3 36.26,36.26 95.04,36.26 131.3,0 36.26,-36.26 36.26,-95.04 0,-131.3 z m -142.49,1255.5 c 36.26,36.26 95.04,36.26 131.3,0 36.25,-36.25 36.25,-95.04 0,-131.29 -36.26,-36.26 -95.04,-36.26 -131.3,0 -36.25,36.25 -36.25,95.04 0,131.29 z m 451.82,-272.85 120.66,-279.5 -282.97,112.32 c 35.13,71.38 92.15,130.01 162.31,167.18 z m -200.96,-333.56 c 0,38.7 5.85,76.04 16.68,111.19 l 283.03,-112.34 -279.5,-120.66 c -13.03,38.23 -20.21,79.17 -20.21,121.81 z m -412.44,69.19 c 51.27,0 92.84,-41.57 92.84,-92.84 0,-51.28 -41.57,-92.84 -92.84,-92.84 -51.28,0 -92.84,41.56 -92.84,92.84 0,51.27 41.56,92.84 92.84,92.84 z m 456.19,-245.54 279.5,120.65 -112.33,-282.97 c -71.38,35.14 -130,92.16 -167.17,162.32 z m 333.56,553.66 c 38.71,0 76.04,-5.86 111.19,-16.68 l -112.34,-283.03 -120.66,279.49 c 38.23,13.04 79.17,20.22 121.81,20.22 z m -2.74,494.72 c 51.28,0 92.84,-41.57 92.84,-92.84 0,-51.28 -41.56,-92.84 -92.84,-92.84 -51.27,0 -92.83,41.56 -92.83,92.84 0,51.27 41.56,92.84 92.83,92.84 z m 498.78,-254.43 c 36.25,36.26 95.03,36.26 131.29,0 36.26,-36.25 36.26,-95.04 0,-131.29 -36.26,-36.26 -95.04,-36.26 -131.29,0 -36.26,36.25 -36.26,95.04 0,131.29 z m 396.91,-625.43 c 0,-51.27 -41.57,-92.84 -92.84,-92.84 -51.28,0 -92.84,41.57 -92.84,92.84 0,51.27 41.56,92.84 92.84,92.84 51.27,0 92.84,-41.57 92.84,-92.84 z m -815.35,8.98 279.5,120.65 c 13.03,-38.23 20.21,-79.17 20.21,-121.8 0,-38.71 -5.85,-76.05 -16.68,-111.2 z m 255.96,175.19 -279.5,-120.66 112.33,282.98 c 71.37,-35.14 130,-92.15 167.17,-162.32 z m -157.21,-509.91 -120.66,279.51 282.97,-112.33 c -35.13,-71.38 -92.15,-130.01 -162.31,-167.18 z m 1272.51,378.02 c -1.58,38.34 -36.46,66.79 -74.71,61.33 l -32.03,-4.57 c -50.79,-7.25 -101.36,21.42 -117.07,69.92 -20.29,62.59 21.7,125.93 84.39,134.88 l 28.58,4.08 c 39.39,5.62 64.74,44.6 53.57,82.52 -5.5,18.69 -11.37,37.21 -17.6,55.58 -12.4,36.53 -53.95,54.36 -89.26,38.35 l -29.77,-13.5 c -46.67,-21.16 -103.32,-7.8 -132.16,34.34 -37.23,54.38 -14.91,126.9 42.7,153.02 l 26.1,11.84 c 36.24,16.43 49.5,61 27.93,94.26 -10.59,16.32 -21.49,32.41 -32.71,48.27 -22.3,31.5 -67.17,36.96 -96.48,11.75 l -26.77,-23.04 c -43.39,-37.33 -109.66,-32.63 -147.26,10.46 v 0 c -55.05,0 -80.55,67.87 -38.94,103.67 l 71.01,61.1 c 30.08,25.88 30.2,72.29 0.13,98.19 -14.73,12.69 -29.73,25.09 -44.97,37.19 -30.33,24.08 -75.01,16.79 -96,-15.64 l -19.09,-29.51 c -31.05,-47.96 -95.97,-61.98 -144.27,-31.16 -48.31,30.83 -62.43,95.29 -31.39,143.26 l 15.58,24.06 c 21.51,33.24 8.47,77.8 -27.71,94.24 -17.75,8.06 -35.69,15.78 -53.81,23.15 -35.93,14.61 -76.73,-4.87 -87.67,-41.86 l -10.03,-33.95 c -16.18,-54.7 -74.49,-86.32 -129.59,-70.26 v 0 c -55.09,16.07 -86.93,73.97 -70.75,128.68 l 8.07,27.31 c 11.22,37.93 -13.97,77.07 -53.39,82.67 -19.26,2.74 -38.64,5.11 -58.14,7.09 -38.6,3.92 -72.19,-26.17 -72.19,-64.7 v -35.17 c 0,-57.01 -46.98,-103.66 -104.4,-103.66 v 0 c -57.42,0 -104.4,46.65 -104.4,103.67 v 28.43 c 0,39.5 -35.22,69.95 -74.61,64.4 -19.4,-2.73 -38.68,-5.85 -57.83,-9.34 -38.2,-6.96 -61.92,-45.28 -50.98,-82.28 l 9.16,-30.99 c 14.46,-48.88 -6.92,-102.66 -53.03,-125.01 -59.51,-28.85 -128.62,3.41 -146.46,63.75 l -8.14,27.52 c -11.22,37.95 -53.75,57.32 -89.98,40.87 -17.8,-8.09 -35.42,-16.53 -52.83,-25.3 -34.59,-17.42 -46.41,-60.75 -25.45,-93.15 l 19.26,-29.76 c 31.05,-47.96 16.93,-112.43 -31.38,-143.25 v -0.01 c -48.3,-30.82 -113.22,-16.8 -144.27,31.17 l -15.42,23.82 c -21.53,33.27 -67.82,39.97 -97.9,14.06 -14.75,-12.7 -29.23,-25.68 -43.44,-38.95 -28.27,-26.38 -27.35,-71.3 1.97,-96.53 l 26.67,-22.94 c 43.4,-37.34 48.14,-103.15 10.53,-146.24 -37.6,-43.09 -103.87,-47.79 -147.26,-10.45 l -21.65,18.63 c -30.07,25.87 -76.33,19.39 -97.88,-13.82 -10.56,-16.29 -20.81,-32.8 -30.72,-49.53 -19.702,-33.24 -6.09,-76.13 29.24,-92.15 l 32.28,-14.63 c 52.23,-23.69 75.45,-85.5 51.59,-137.37 v 0 c -23.85,-51.86 -86.1,-74.91 -138.331,-51.23 l -26.227,11.89 c -36.211,16.42 -78.793,-2.76 -90.004,-40.69 -5.492,-18.58 -10.621,-37.31 -15.371,-56.2 -9.402,-37.38 15.813,-74.67 54.219,-80.16 l 35.23,-5.03 c 56.834,-8.11 96.654,-60.92 88.484,-117.36 -8.17,-56.43 -61.362,-95.97 -118.198,-87.86 l -28.332,4.05 c -39.211,5.6 -74.723,-24.42 -74.747,-63.75 0,-0.25 0,-0.51 0,-0.76 0,-19.52 0.415,-38.96 1.215,-58.29 1.582,-38.34 36.465,-66.79 74.715,-61.33 l 34.992,5 c 56.836,8.11 110.025,-31.42 118.195,-87.86 8.17,-56.44 -31.64,-109.25 -88.48,-117.36 l -28.582,-4.08 c -39.383,-5.63 -64.734,-44.6 -53.57,-82.52 5.5,-18.69 11.367,-37.22 17.601,-55.58 12.399,-36.53 53.95,-54.37 89.266,-38.35 l 32.485,14.73 c 52.23,23.68 114.48,0.63 138.34,-51.23 23.85,-51.87 0.63,-113.68 -51.6,-137.37 l -26.1,-11.83 c -36.24,-16.44 -49.5,-61.01 -27.92,-94.27 10.58,-16.31 21.48,-32.4 32.7,-48.26 22.3,-31.51 67.17,-36.97 96.48,-11.75 l 26.77,23.03 c 43.39,37.34 109.66,32.63 147.26,-10.46 v 0 c 55.05,0 80.54,-67.87 38.94,-103.66 l -71.01,-61.1 c -30.08,-25.89 -30.2,-72.3 -0.13,-98.2 14.74,-12.69 29.73,-25.09 44.97,-37.19 30.33,-24.07 75.01,-16.79 96,15.65 l 17.47,27 c 27.74,42.86 82.67,62.03 129.88,42.07 60.93,-25.77 81.64,-98.75 47.4,-151.658 l -15.58,-24.07 c -21.51,-33.243 -8.47,-77.793 27.71,-94.231 17.75,-8.07 35.69,-15.793 53.81,-23.16 35.93,-14.602 76.73,4.879 87.67,41.871 l 9.32,31.52 c 14.27,48.25 60.64,81.609 111.02,76.429 66.67,-6.851 108.02,-71.609 90.03,-132.422 l -8.07,-27.308 c -11.22,-37.942 13.97,-77.071 53.39,-82.68 19.26,-2.742 38.64,-5.101 58.14,-7.082 38.6,-3.918 72.19,26.16 72.19,64.691 v 35.172 c 0,57.02 46.98,103.668 104.4,103.668 v 0 c 57.42,0 104.4,-46.648 104.4,-103.668 v -28.433 c 0,-39.5 35.22,-69.957 74.61,-64.41 19.4,2.742 38.68,5.851 57.83,9.339 38.2,6.961 61.92,45.282 50.98,82.282 l -9.16,30.992 c -14.46,48.887 6.92,102.668 53.03,125.019 59.51,28.839 128.62,-3.41 146.46,-63.75 l 8.14,-27.519 c 11.22,-37.953 53.75,-57.32 89.98,-40.871 17.8,8.09 35.42,16.519 52.83,25.289 34.59,17.43 46.41,60.762 25.45,93.152 L 2937.49,1011 c -27.74,42.87 -22.48,100.45 15.42,134.79 48.92,44.32 124.38,32.71 158.62,-20.19 l 15.42,-23.83 c 21.53,-33.26 67.82,-39.96 97.9,-14.05 14.75,12.69 29.23,25.68 43.44,38.94 28.27,26.39 27.35,71.3 -1.97,96.53 l -24.41,21 c -38.78,33.37 -50.07,90.08 -23.45,133.64 34.36,56.21 110.06,66.18 157.92,25 l 21.65,-18.63 c 30.07,-25.87 76.33,-19.39 97.88,13.82 10.56,16.29 20.81,32.8 30.72,49.53 19.7,33.23 6.09,76.12 -29.24,92.14 l -32.28,14.64 c -52.23,23.69 -75.45,85.5 -51.59,137.36 0,53.32 55.55,88.77 104.4,66.62 l 60.16,-27.28 c 36.21,-16.42 78.79,2.76 90,40.69 5.5,18.58 10.62,37.32 15.37,56.2 9.41,37.38 -15.81,74.68 -54.22,80.16 l -35.23,5.03 c -62.69,8.95 -104.67,72.29 -84.39,134.88 15.72,48.5 66.28,77.17 117.07,69.92 l 25.37,-3.62 c 39.21,-5.6 74.73,24.41 74.75,63.75 0,0.25 0,0.5 0,0.75 0,19.53 -0.42,38.96 -1.22,58.29" /><path
         id="path24"
         style="fill:#231f20;fill-opacity:1;fill-rule:nonzero;stroke:none"
         d="m 9572.64,1814.11 c -21.41,-50.87 -80,-74.76 -130.88,-53.36 -50.88,21.41 -74.77,80 -53.36,130.88 21.41,50.87 80,74.77 130.88,53.36 50.87,-21.41 74.76,-80 53.36,-130.88 z m -132.73,786.28 c 51.11,20.84 109.44,-3.7 130.28,-54.81 20.84,-51.11 -3.7,-109.44 -54.82,-130.28 -51.11,-20.84 -109.43,3.7 -130.27,54.82 -20.84,51.11 3.7,109.43 54.81,130.27 z m -188.28,-483.67 c -36.32,0 -65.77,29.45 -65.77,65.77 0,36.33 29.45,65.78 65.77,65.78 36.33,0 65.78,-29.45 65.78,-65.78 0,-36.32 -29.45,-65.77 -65.78,-65.77 z m -114.48,-380.6 c -25.68,-25.69 -67.33,-25.69 -93.01,0 -25.69,25.68 -25.69,67.33 0,93.01 25.68,25.69 67.33,25.69 93.01,0 25.69,-25.68 25.69,-67.33 0,-93.01 z m -80.01,-440.97 c -51.11,-20.83 -109.43,3.71 -130.27,54.82 -20.84,51.11 3.7,109.44 54.81,130.27 51.11,20.84 109.44,-3.7 130.28,-54.81 20.84,-51.11 -3.71,-109.44 -54.82,-130.28 z m -373.86,583.81 c -173.23,0 -313.67,140.44 -313.67,313.67 0,173.23 140.44,313.66 313.67,313.66 173.23,0 313.66,-140.43 313.66,-313.66 0,-173.23 -140.43,-313.67 -313.66,-313.67 z m 10.78,-331.02 c -36.32,0 -65.77,29.44 -65.77,65.77 0,36.33 29.45,65.77 65.77,65.77 36.33,0 65.77,-29.44 65.77,-65.77 0,-36.33 -29.44,-65.77 -65.77,-65.77 z m -237.5,-201.87 c -21.41,-50.88 -80.01,-74.77 -130.88,-53.36 -50.88,21.4 -74.77,80 -53.36,130.87 21.4,50.88 80,74.77 130.88,53.36 50.87,-21.4 74.76,-80 53.36,-130.87 z m -208.88,382.12 c -25.68,25.68 -25.68,67.33 0,93.02 25.69,25.68 67.33,25.68 93.02,0 25.69,-25.69 25.69,-67.34 0,-93.02 -25.69,-25.69 -67.33,-25.69 -93.02,0 z m -7.93,889.47 c 25.69,25.69 67.34,25.69 93.02,0 25.69,-25.69 25.69,-67.33 0,-93.02 -25.68,-25.68 -67.33,-25.68 -93.02,0 -25.68,25.69 -25.68,67.33 0,93.02 z m 80.02,440.96 c 51.11,20.84 109.43,-3.7 130.27,-54.81 20.84,-51.11 -3.7,-109.44 -54.81,-130.28 -51.11,-20.84 -109.44,3.7 -130.28,54.82 -20.84,51.11 3.7,109.43 54.82,130.27 z m 363.08,-252.78 c 36.32,0 65.77,-29.45 65.77,-65.77 0,-36.33 -29.45,-65.78 -65.77,-65.78 -36.33,0 -65.77,29.45 -65.77,65.78 0,36.32 29.44,65.77 65.77,65.77 z m 237.5,201.87 c 21.41,50.88 80.01,74.77 130.88,53.36 50.88,-21.41 74.77,-80 53.36,-130.88 -21.4,-50.87 -80,-74.76 -130.88,-53.36 -50.87,21.41 -74.76,80.01 -53.36,130.88 z m 208.88,-475.14 c -25.69,-25.69 -67.33,-25.69 -93.02,0 -25.69,25.69 -25.69,67.33 0,93.02 25.69,25.68 67.33,25.68 93.02,0 25.68,-25.69 25.68,-67.33 0,-93.02 z M 8125.28,2105.51 c -36.33,0 -65.78,29.45 -65.78,65.77 0,36.33 29.45,65.78 65.78,65.78 36.32,0 65.77,-29.45 65.77,-65.78 0,-36.32 -29.45,-65.77 -65.77,-65.77 z M 7937,1753.39 c -51.11,-20.84 -109.44,3.7 -130.28,54.81 -20.84,51.11 3.7,109.44 54.82,130.28 51.11,20.83 109.43,-3.71 130.27,-54.82 20.84,-51.11 -3.7,-109.44 -54.81,-130.27 z m -132.73,786.27 c 21.41,50.88 80,74.77 130.88,53.36 50.88,-21.4 74.77,-80 53.36,-130.87 -21.41,-50.88 -80,-74.77 -130.88,-53.36 -50.87,21.4 -74.76,80 -53.36,130.87 z m 2327.83,-302.58 c -1.5,38.34 -36.4,66.79 -74.7,61.33 l -32,-4.57 c -50.79,-7.25 -101.36,21.42 -117.08,69.92 -20.28,62.59 21.71,125.93 84.4,134.88 l 28.58,4.08 c 39.4,5.62 64.7,44.6 53.6,82.52 -5.5,18.69 -11.4,37.21 -17.6,55.58 -12.4,36.53 -54,54.36 -89.3,38.35 l -29.76,-13.5 c -46.68,-21.16 -103.33,-7.8 -132.17,34.34 -37.22,54.38 -14.91,126.9 42.71,153.02 l 26.1,11.84 c 36.24,16.43 49.5,61 27.92,94.26 -10.58,16.32 -21.49,32.41 -32.71,48.27 -22.29,31.5 -67.16,36.96 -96.47,11.75 l -26.77,-23.04 c -43.39,-37.33 -109.66,-32.63 -147.27,10.46 -55.04,0 -80.54,67.87 -38.93,103.67 l 71.01,61.1 c 30.08,25.88 30.19,72.29 0.13,98.19 -14.74,12.69 -29.73,25.09 -44.98,37.19 -30.32,24.08 -75,16.79 -95.99,-15.64 l -19.1,-29.51 c -31.04,-47.96 -95.96,-61.98 -144.26,-31.16 -48.31,30.83 -62.43,95.29 -31.39,143.26 l 15.58,24.06 c 21.51,33.24 8.47,77.8 -27.71,94.24 -17.75,8.06 -35.69,15.78 -53.82,23.15 -35.92,14.61 -76.72,-4.87 -87.66,-41.86 l -10.04,-33.95 c -16.17,-54.7 -74.49,-86.32 -129.58,-70.26 v 0 c -55.09,16.07 -86.93,73.97 -70.76,128.68 l 8.08,27.31 c 11.22,37.93 -13.97,77.07 -53.39,82.67 -19.26,2.74 -38.64,5.11 -58.14,7.09 -38.6,3.92 -72.19,-26.17 -72.19,-64.7 v -35.17 c 0,-57.01 -46.98,-103.66 -104.4,-103.66 -57.42,0 -104.4,46.65 -104.4,103.67 v 28.43 c 0,39.5 -35.23,69.95 -74.61,64.4 -19.4,-2.73 -38.69,-5.85 -57.84,-9.34 -38.2,-6.96 -61.91,-45.28 -50.97,-82.28 l 9.16,-30.99 c 14.46,-48.88 -6.92,-102.66 -53.03,-125.01 -59.51,-28.85 -128.62,3.41 -146.47,63.75 l -8.13,27.52 c -11.23,37.95 -53.76,57.32 -89.98,40.87 -17.81,-8.09 -35.42,-16.53 -52.83,-25.3 -34.59,-17.42 -46.42,-60.75 -25.45,-93.15 l 19.26,-29.76 c 31.05,-47.96 16.92,-112.43 -31.38,-143.25 v -0.01 c -48.31,-30.82 -113.23,-16.8 -144.27,31.17 l -15.42,23.82 c -21.53,33.27 -67.82,39.97 -97.91,14.06 -14.74,-12.7 -29.22,-25.68 -43.44,-38.95 -28.27,-26.38 -27.34,-71.3 1.98,-96.53 l 26.67,-22.94 c 43.39,-37.34 48.13,-103.15 10.53,-146.24 -37.6,-43.09 -103.87,-47.79 -147.27,-10.45 l -21.65,18.63 c -30.06,25.87 -76.33,19.39 -97.87,-13.82 -10.57,-16.29 -20.81,-32.8 -30.73,-49.53 -19.69,-33.24 -6.08,-76.13 29.24,-92.15 l 32.29,-14.63 c 52.23,-23.69 75.44,-85.5 51.59,-137.37 -23.85,-51.86 -86.1,-74.91 -138.33,-51.23 l -26.23,11.89 c -36.21,16.42 -78.79,-2.76 -90.01,-40.69 -5.49,-18.58 -10.61,-37.31 -15.37,-56.2 -9.4,-37.38 15.82,-74.67 54.22,-80.16 l 35.24,-5.03 c 56.83,-8.11 96.65,-60.92 88.47,-117.36 -8.17,-56.43 -61.35,-95.97 -118.19,-87.86 l -28.33,4.05 c -39.22,5.6 -74.73,-24.42 -74.75,-63.75 0,-0.25 0,-0.51 0,-0.76 0,-19.52 0.42,-38.96 1.21,-58.29 1.59,-38.34 36.47,-66.79 74.72,-61.33 l 34.99,5 c 56.84,8.11 110.03,-31.42 118.2,-87.86 8.17,-56.44 -31.65,-109.25 -88.48,-117.36 l -28.59,-4.08 c -39.38,-5.63 -64.73,-44.6 -53.57,-82.52 5.5,-18.69 11.37,-37.22 17.6,-55.58 12.4,-36.53 53.96,-54.37 89.27,-38.35 l 32.49,14.73 c 52.23,23.68 114.48,0.63 138.34,-51.23 23.85,-51.87 0.63,-113.68 -51.6,-137.37 l -26.1,-11.83 c -36.24,-16.44 -49.5,-61.01 -27.93,-94.27 10.59,-16.31 21.49,-32.4 32.71,-48.26 22.29,-31.51 67.17,-36.97 96.48,-11.75 l 26.76,23.03 c 43.4,37.34 109.67,32.63 147.27,-10.46 55.05,0 80.54,-67.87 38.94,-103.66 l -71.02,-61.1 c -30.07,-25.89 -30.19,-72.3 -0.12,-98.2 14.73,-12.69 29.73,-25.09 44.97,-37.19 30.33,-24.07 75,-16.79 95.99,15.65 l 17.48,27 c 27.74,42.86 82.67,62.03 129.88,42.07 60.92,-25.77 81.63,-98.75 47.39,-151.658 l -15.57,-24.07 c -21.52,-33.243 -8.47,-77.793 27.71,-94.231 17.75,-8.07 35.69,-15.793 53.81,-23.16 35.93,-14.602 76.73,4.879 87.66,41.871 l 9.32,31.52 c 14.27,48.25 60.65,81.609 111.03,76.429 66.66,-6.851 108.01,-71.609 90.03,-132.422 l -8.07,-27.308 c -11.22,-37.942 13.97,-77.071 53.38,-82.68 19.26,-2.742 38.65,-5.101 58.14,-7.082 38.6,-3.918 72.2,26.16 72.2,64.691 v 35.172 c 0,57.02 46.98,103.668 104.4,103.668 57.42,0 104.4,-46.648 104.4,-103.668 v -28.433 c 0,-39.5 35.22,-69.957 74.6,-64.41 19.41,2.742 38.69,5.851 57.84,9.339 38.2,6.961 61.92,45.282 50.98,82.282 l -9.17,30.992 c -14.45,48.887 6.93,102.668 53.04,125.019 59.5,28.839 128.62,-3.41 146.46,-63.75 l 8.14,-27.519 c 11.22,-37.953 53.75,-57.32 89.97,-40.871 17.81,8.09 35.42,16.519 52.84,25.289 34.58,17.43 46.41,60.762 25.44,93.152 L 9344.05,1011 c -27.74,42.87 -22.48,100.45 15.42,134.79 48.91,44.32 124.37,32.71 158.61,-20.19 l 15.42,-23.83 c 21.53,-33.26 67.83,-39.96 97.91,-14.05 14.74,12.69 29.23,25.68 43.44,38.94 28.27,26.39 27.35,71.3 -1.98,96.53 l -24.4,21 c -38.78,33.37 -50.07,90.08 -23.45,133.64 34.36,56.21 110.05,66.18 157.92,25 l 21.65,-18.63 c 30.07,-25.87 76.33,-19.39 97.88,13.82 10.56,16.29 20.81,32.8 30.72,49.53 19.7,33.23 6.09,76.12 -29.24,92.14 l -32.28,14.64 c -52.23,23.69 -75.45,85.5 -51.6,137.36 0,53.32 55.56,88.77 104.4,66.62 l 60.17,-27.28 c 36.16,-16.42 78.76,2.76 89.96,40.69 5.5,18.58 10.7,37.32 15.4,56.2 9.4,37.38 -15.8,74.68 -54.2,80.16 l -35.2,5.03 c -62.73,8.95 -104.71,72.29 -84.43,134.88 15.72,48.5 66.28,77.17 117.03,69.92 l 25.4,-3.62 c 39.2,-5.6 74.7,24.41 74.8,63.75 0,0.25 0,0.5 0,0.75 0,19.53 -0.5,38.96 -1.3,58.29" /></g></g></svg>